<svg xmlns="http://www.w3.org/2000/svg" aria-hidden="true" style="position:absolute;width:0;height:0;overflow:hidden">
  <defs>
    <symbol id="facebook" viewBox="0 0 13 32">
      <path d="M11.274.114h1.367v5.125h-1.708c-.702 0-1.367 0-1.708.323-.361.361-.361.702-.361 1.48v1.822h3.777v4.327H8.864V32H3.075V13.077H0V8.769h3.075v-1.48c0-2.505.342-4.327 1.025-5.144C5.125.684 7.175 0 10.23 0c.342.114.702.114 1.044.114z"/>
    </symbol>
    <symbol id="instagram" viewBox="0 0 32 32">
      <path d="M28.707 10.747A9.438 9.438 0 0 0 28.12 7.6a6.576 6.576 0 0 0-3.747-3.733c-1-.373-2.04-.573-3.107-.6-1.373-.053-1.8-.08-5.28-.08-3.467 0-3.907 0-5.267.08a9.472 9.472 0 0 0-3.107.6A6.581 6.581 0 0 0 3.865 7.6c-.373 1-.573 2.04-.6 3.107-.053 1.36-.067 1.8-.067 5.267s0 3.907.067 5.267a9.455 9.455 0 0 0 .6 3.093 6.565 6.565 0 0 0 3.747 3.747c.987.387 2.04.6 3.107.64 1.373.053 1.8.067 5.28.067 3.467 0 3.907 0 5.267-.067a9.472 9.472 0 0 0 3.107-.6 6.581 6.581 0 0 0 3.747-3.733c.373-1 .573-2.04.6-3.107.053-1.373.08-1.8.08-5.267-.013-3.467-.013-3.907-.093-5.267zM15.987 22.52c-3.64 0-6.573-2.933-6.573-6.56s2.933-6.56 6.573-6.56c3.627 0 6.573 2.933 6.573 6.56s-2.947 6.56-6.573 6.56zm6.826-11.827c-.84 0-1.533-.693-1.533-1.533s.693-1.533 1.533-1.533a1.533 1.533 0 0 1 0 3.066z"/>
      <path d="M19.987 15.96c0 2.213-1.787 4.013-4 4.013s-4-1.8-4-4.013c0-2.2 1.787-4 4-4s4 1.8 4 4z"/>
    </symbol>
    <symbol id="twitter" viewBox="0 0 39 32">
      <path d="M39.385 3.781c-1.477.65-3.033 1.063-4.667 1.28a8.13 8.13 0 0 0 3.564-4.47 16.133 16.133 0 0 1-5.12 1.95 8.137 8.137 0 0 0-5.908-2.54 8.072 8.072 0 0 0-8.074 8.074c0 .63.059 1.241.197 1.831-6.715-.315-12.662-3.545-16.64-8.448a8.07 8.07 0 0 0-1.103 4.096c0 2.777 1.438 5.258 3.584 6.695a8.004 8.004 0 0 1-3.663-.985v.079c0 3.938 2.816 7.188 6.479 7.936a8.135 8.135 0 0 1-2.107.276 7.776 7.776 0 0 1-1.536-.138c1.044 3.19 4.017 5.534 7.542 5.612a16.275 16.275 0 0 1-10.004 3.446c-.67 0-1.3-.02-1.93-.118C3.563 30.681 7.797 32 12.366 32c14.868 0 22.981-12.308 22.981-22.981 0-.354 0-.709-.02-1.044a16.444 16.444 0 0 0 4.057-4.194z"/>
    </symbol>
    <symbol id="linkedin" viewBox="0 0 32 32">
      <path d="M12 12h5.535v2.837h.079c.77-1.381 2.655-2.837 5.464-2.837C28.92 12 30 15.637 30 20.367V30h-5.769v-8.54c0-2.037-.042-4.657-3.001-4.657-3.005 0-3.463 2.218-3.463 4.509V30H12V12zM2 12h6v18H2V12zM8 7a3 3 0 1 1-6 0 3 3 0 0 1 6 0z"/>
    </symbol>
    <symbol id="diagram" viewBox="0 0 32 32">
      <path fill="#4d5ae5" d="M14.925 14.96h1.065v4.8h-1.065v-4.8zM19.185 17.095h1.07v2.665h-1.07v-2.665zM10.66 18.695h1.065v1.065H10.66v-1.065zM7.46 18.16h1.065v1.6H7.46v-1.6z" style="fill:var(--color1, #4d5ae5)"/>
      <path fill="#2e2f42" d="M1.595 28.29h25.59a1.6 1.6 0 0 0 1.595-1.6v-2.135c0-.88-.715-1.595-1.595-1.595h-.535V9.665l3.03-2.87c.7.35 1.55.135 2.01-.495.46-.635.395-1.51-.15-2.07a1.61 1.61 0 0 0-2.61 1.805l-2.28 2.16v-1.23c0-.88-.715-1.6-1.6-1.6H3.73c-.885 0-1.6.72-1.6 1.6V22.96h-.535c-.88 0-1.595.715-1.595 1.595v2.135c0 .88.715 1.6 1.595 1.6zM30.38 4.835c.295 0 .535.24.535.53a.531.531 0 1 1-1.065 0c0-.29.235-.53.53-.53zM3.195 6.965c0-.295.24-.53.535-.53h21.32c.295 0 .535.235.535.53v2.24L24.52 10.22V8.03c0-.29-.24-.53-.535-.53H4.795a.535.535 0 0 0-.535.53v13.33c0 .295.24.53.535.53h19.19a.531.531 0 0 0 .535-.53v-9.675l1.065-1.01V22.96H3.195V6.965zm4.8 6.93c-.725 0-1.355.48-1.55 1.175A1.601 1.601 0 0 0 9.1 16.645l1.855.93a.535.535 0 0 0 .635-.125l3.94-4.43 3.87 2.9c.21.155.5.14.685-.04l3.365-3.185v8.13H5.33V8.565h18.12v2.66l-3.77 3.57-3.905-2.925a.532.532 0 0 0-.715.07l-3.995 4.495-1.495-.745a.861.861 0 0 0 .02-.195c0-.885-.715-1.6-1.595-1.6zm.53 1.6a.531.531 0 1 1-1.065 0 .531.531 0 1 1 1.065 0zm3.2 8.53h5.33v.53c0 .295-.24.535-.535.535h-4.26a.536.536 0 0 1-.535-.535v-.53zm-10.66.53c0-.29.235-.53.53-.53h9.065v.53c0 .885.715 1.6 1.6 1.6h4.26c.885 0 1.6-.715 1.6-1.6v-.53h9.065c.295 0 .53.24.53.53v2.135c0 .295-.235.53-.53.53H1.595a.527.527 0 0 1-.53-.53v-2.135z" style="fill:var(--color2, #2e2f42)"/>
    </symbol>
    <symbol id="clock" viewBox="0 0 32 32">
      <path fill="#2e2f42" d="M31.295 15.3C31.29 6.845 24.44-.005 15.985 0 7.535 0 .685 6.855.685 15.305c0 6.66 4.305 12.55 10.65 14.575a.653.653 0 0 0 .81-.42l3.865-12.25a1.912 1.912 0 1 0-.84-3.635L10.065 8.47a.634.634 0 0 0-.9.015.634.634 0 0 0 0 .885l5.105 5.11c-.395.8-.17 1.765.535 2.31L11.12 28.46C3.845 25.78.115 17.705 2.8 10.43 5.48 3.15 13.55-.575 20.83 2.105S31.835 12.86 29.155 20.14a14.042 14.042 0 0 1-7.465 7.97l-.395-1.875a.643.643 0 0 0-.76-.49.673.673 0 0 0-.29.15L16.41 29.32a.635.635 0 0 0 .23 1.085l4.9 1.56a.634.634 0 0 0 .815-.74l-.39-1.835a15.265 15.265 0 0 0 9.33-14.09zm-15.305-.64a.637.637 0 1 1-.004 1.274.637.637 0 0 1 .004-1.274zm2.1 14.865 2.185-1.95.6 2.84-2.785-.89z" style="fill:var(--color2, #2e2f42)"/>
      <path fill="#4d5ae5" d="M15.35 3.185V4.46a.637.637 0 0 0 1.275 0V3.185a.637.637 0 1 0-1.275 0zM3.875 14.66a.638.638 0 1 0 0 1.275H5.15a.637.637 0 0 0 0-1.275H3.875zM28.105 15.935a.637.637 0 1 0 0-1.275H26.83a.637.637 0 0 0 0 1.275h1.275z" style="fill:var(--color1, #4d5ae5)"/>
    </symbol>
    <symbol id="antenna" viewBox="0 0 32 32">
      <path fill="#2e2f42" d="m30.77 22.095-8.445-8.505.94-4.615c.24.095.5.145.76.145h.005a2.16 2.16 0 0 0 2.185-2.135 2.153 2.153 0 0 0-2.135-2.18 2.16 2.16 0 0 0-2.06 2.88l-4.96.605L8.97.16C8.87.055 8.735 0 8.595 0S8.32.055 8.22.155l-1.51 1.5c-.21.21-.21.55 0 .755l.81.825A14.955 14.955 0 0 0 10.04 20.9c.045.04.095.075.145.095-.03.18-.05.365-.05.55v6.185h-6.4A2.672 2.672 0 0 0 1.07 30.4v1.065c0 .295.235.535.53.535h24.535c.295 0 .535-.24.535-.535V30.4A2.676 2.676 0 0 0 24 27.73h-6.4v-2.74a15.26 15.26 0 0 0 3.05.32 14.856 14.856 0 0 0 7.04-1.785l.82.825c.1.1.235.155.375.16.14 0 .275-.06.375-.155l1.51-1.505a.531.531 0 0 0 0-.755zM23.275 6.23a1.067 1.067 0 1 1 .755 1.825h-.005a1.067 1.067 0 0 1-.745-1.825h-.005zM22.02 9.735l-.595 2.945-1.175-1.18 1.77-1.765zm-.605-.9-1.92 1.905-1.485-1.49 3.405-.415zM24 28.8c.885 0 1.6.715 1.6 1.6v.53H2.135v-.53c0-.885.715-1.6 1.6-1.6H24zm-7.465-2.135v1.065H11.2v-1.065h5.335zM11.2 25.6v-4.055c0-1.295 1.2-2.345 2.67-2.345s2.665 1.05 2.665 2.345V25.6H11.2zm6.4-1.7v-2.355c0-1.885-1.675-3.415-3.73-3.415a3.816 3.816 0 0 0-3.285 1.785A13.866 13.866 0 0 1 8.31 4.03l18.6 18.71a13.824 13.824 0 0 1-9.31 1.16zm11.29-.68-.75-.76L7.835 2.035l.755-.75 7.935 7.98.01.01 13.11 13.19-.755.755z" style="fill:var(--color2, #2e2f42)"/>
      <path fill="#4d5ae5" d="M13.875 20.265h-.005c-.885 0-1.605.715-1.605 1.595 0 .885.715 1.605 1.6 1.605h.005a1.6 1.6 0 0 0 .005-3.2zm.37 1.975c-.1.1-.235.16-.375.16a.536.536 0 0 1 0-1.07.531.531 0 0 1 .37.91h.005z" style="fill:var(--color1, #4d5ae5)"/>
    </symbol>
    <symbol id="astronaut" viewBox="0 0 32 32">
      <path fill="#4d5ae5" d="M31.97 4.52a.533.533 0 0 0-.43-.36l-1.91-.28-.855-1.73c-.18-.365-.775-.365-.955 0l-.855 1.73-1.91.28a.533.533 0 0 0-.295.91l1.38 1.345-.325 1.905c-.035.2.05.4.21.52.165.12.385.135.565.04l1.705-.895 1.71.895c.08.04.165.065.25.065a.53.53 0 0 0 .315-.105.527.527 0 0 0 .21-.52l-.325-1.905 1.38-1.345a.536.536 0 0 0 .135-.55zm-2.46 1.33a.532.532 0 0 0-.155.47l.19 1.115-1-.525a.528.528 0 0 0-.25-.06c-.085 0-.17.02-.245.06l-1 .525.19-1.115a.532.532 0 0 0-.155-.47l-.81-.79 1.12-.165a.527.527 0 0 0 .4-.29l.5-1.015.5 1.015c.08.155.23.265.405.29l1.12.165-.81.79zM25.065 20.52h1.065v1.065h-1.065V20.52zM25.065 22.655h1.065v1.065h-1.065v-1.065zM26.13 21.585h1.07v1.07h-1.07v-1.07zM24 21.585h1.065v1.07H24v-1.07zM21.33 26.385h1.07v1.07h-1.07v-1.07zM21.33 28.52h1.07v1.065h-1.07V28.52zM22.4 27.455h1.065v1.065H22.4v-1.065z" style="fill:var(--color1, #4d5ae5)"/>
      <path fill="#4d5ae5" d="M20.265 27.455h1.065v1.065h-1.065v-1.065zM14.93 24.255H16v1.065h-1.07v-1.065zM14.93 26.385H16v1.07h-1.07v-1.07zM16 25.32h1.065v1.065H16V25.32zM13.865 25.32h1.065v1.065h-1.065V25.32zM4.795 6.12h1.07v1.065h-1.07V6.12zM4.795 8.255h1.07V9.32h-1.07V8.255zM5.865 7.185H6.93v1.07H5.865v-1.07zM3.73 7.185h1.065v1.07H3.73v-1.07z" style="fill:var(--color1, #4d5ae5)"/>
      <path fill="#2e2f42" d="M24.645 14.17c-.285-.385-.705-.635-1.185-.7s-.95.06-1.335.35l-1.25.95-1.89 1.405-1.355-.535c2.415-1.075 4.1-3.48 4.1-6.265 0-3.795-3.11-6.875-6.94-6.875S7.845 5.58 7.845 9.375c0 1.37.415 2.65 1.12 3.725l-2.76-.025c-.01 0-.02.005-.025.005a.773.773 0 0 0-.155.03l-.04.015c-.005.005-.01.005-.02.005l-3.22 1.585H2.74l-1.885.905c-.025.005-.045.02-.065.03a1.764 1.764 0 0 0 .455 3.16 1.836 1.836 0 0 0 1.375-.125l1.385-.735 2.26-1.16 1.35-.005-5.425 5.37-1.335 1.32c-.315.315-.49.73-.49 1.17s.175.855.49 1.17c.32.32.75.48 1.175.48s.85-.16 1.175-.48l1.31-1.3 1.74-1.29.895.89-1.755 1.74L4.06 27.18c-.32.31-.49.725-.49 1.165 0 .445.17.86.49 1.17a1.666 1.666 0 0 0 2.35 0l3.475-3.435v-.005l1.005-.99v-.005c.005-.005.015-.005.02-.015l5.15-5.61 3.465.49a.473.473 0 0 0 .26-.035c.02-.005.035-.015.05-.02.02-.01.04-.015.06-.03l3.2-2.115c.015-.005.02-.02.03-.03.015-.01.03-.01.04-.025l1.27-1.18c.66-.615.75-1.62.21-2.34zM2.12 17.75a.713.713 0 0 1-.555.05.713.713 0 0 1-.425-.355.703.703 0 0 1 .215-.895l1.31-.625.315.915.13.385-.99.525zm3.49-1.815-1.545.795-.255-.74-.18-.53 2.02-.995-.04 1.47zM20.67 9.37c0 .915-.22 1.77-.6 2.54l-4.17-1.885a1.837 1.837 0 0 0-.785-1.375l1.46-4.82c2.37.75 4.095 2.95 4.095 5.54zm-11.76 0c0-3.205 2.64-5.815 5.88-5.815.255 0 .5.02.745.05l-1.43 4.715c-.02 0-.035-.005-.055-.005-1.03 0-1.87.83-1.87 1.85a1.863 1.863 0 0 0 3.48.915l3.855 1.74a5.887 5.887 0 0 1-4.725 2.37c-3.24 0-5.88-2.61-5.88-5.82zm5.94.795c0 .44-.36.795-.8.795a.8.8 0 0 1-.805-.795.802.802 0 0 1 1.605 0zm-12.395 14.9a.61.61 0 0 1-.85 0 .59.59 0 0 1 0-.84l.96-.95.845.84-.955.95zm3.205 3.7a.6.6 0 0 1-1.025-.42.57.57 0 0 1 .175-.415l.96-.95.85.84-.96.945zm3.475-3.44H9.13l-1.76 1.75-.4-.4-.45-.445 1.76-1.74a.49.49 0 0 0 .09-.135c.01-.015.02-.025.03-.04.015-.04.015-.085.025-.125 0-.025.01-.05.01-.075a.39.39 0 0 0-.02-.105c-.005-.03-.005-.06-.015-.095a.557.557 0 0 0-.095-.135c-.01-.01-.01-.025-.025-.035s0-.005 0-.005l-1.6-1.585c-.02-.015-.04-.025-.06-.04-.03-.02-.055-.04-.085-.055s-.065-.025-.095-.035c-.035-.005-.065-.015-.1-.015-.035-.005-.065 0-.095 0a.652.652 0 0 0-.105.02c-.035.015-.065.03-.095.045-.02.015-.04.015-.06.03l-1.77 1.315-.9-.89 2.395-2.37 4.35 4.255-.925.91zm6.8-6.955c-.015-.005-.03 0-.045 0-.04 0-.075 0-.115.01-.03.005-.06.01-.09.02-.035.01-.065.025-.095.045l-.085.06c-.01.01-.025.02-.04.03L10.78 23.64l-4.315-4.225L9.29 16.62a.52.52 0 0 0 0-.745.529.529 0 0 0-.38-.155l-2.21.01.025-1.59 3.095.025a6.977 6.977 0 0 0 4.97 2.085c.435 0 .86-.045 1.275-.125a.45.45 0 0 0 .13.085l2.405.95.15.755.18.875-2.995-.42zm4.03.175L19.65 17l1.445-1.07.375.495.57.75-2.075 1.37zm3.745-2.805-.84.775-.925-1.225.83-.63c.155-.12.35-.17.54-.145.19.03.36.13.48.285.215.29.175.69-.085.94z" style="fill:var(--color2, #2e2f42)"/>
      <path fill="#2e2f42" d="m13.6 18.54-2.145-2.13a.525.525 0 0 0-.75 0L8.56 18.54a.541.541 0 0 0 0 .76l2.145 2.13c.105.105.24.155.375.155s.275-.05.375-.155L13.6 19.3a.541.541 0 0 0 0-.76zm-2.52 1.76-1.385-1.38 1.385-1.38 1.39 1.38-1.39 1.38zM17.16 5.07l-.255 1.035c.07.015 1.735.45 1.735 2.15h1.07c0-2.02-1.665-2.97-2.55-3.185zM18.64 9.32h1.07v1.065h-1.07V9.32z" style="fill:var(--color2, #2e2f42)"/>
    </symbol>
    <symbol id="linkedin" viewBox="0 0 32 32">
      <path d="M12 12h5.535v2.837h.079c.77-1.381 2.655-2.837 5.464-2.837C28.92 12 30 15.637 30 20.367V30h-5.769v-8.54c0-2.037-.042-4.657-3.001-4.657-3.005 0-3.463 2.218-3.463 4.509V30H12V12zM2 12h6v18H2V12zM8 7a3 3 0 1 1-6 0 3 3 0 0 1 6 0z"/>
    </symbol>
 
    <symbol id="send" viewBox="0 0 38 32">
      <path d="M38.4 0l-38.4 18 12.256 3.776 18.944-14.784-14.4 16.192v8.816l6.88-6.704 8.72 2.704 6-28z"></path>
    </symbol>

  
    <symbol id="close" viewBox="0 0 32 32">
      <path d="M32 3.2l-3.24-3.2-12.76 12.76-12.8-12.76-3.2 3.2 12.76 12.8-12.76 12.76 3.2 3.24 12.8-12.8 12.76 12.8 3.24-3.24-12.8-12.76 12.8-12.8z"></path>
    </symbol>

   
    <symbol id="email" viewBox="0 0 40 32">
      <path d="M36 0h-32c-2.213 0-4 1.787-4 4v24c0 2.187 1.787 4 4 4h32c2.187 0 4-1.813 4-4v-24c0-2.213-1.813-4-4-4zM35.2 8.48l-14.16 8.853c-0.64 0.4-1.467 0.4-2.107 0l-14.133-8.853c-0.507-0.32-0.8-0.853-0.8-1.44 0-1.333 1.44-2.133 2.587-1.44l13.413 8.4 13.387-8.4c1.147-0.693 2.613 0.107 2.613 1.44 0 0.587-0.32 1.12-0.8 1.44z"></path>
    </symbol>
    <symbol id="phone" viewBox="0 0 32 32">
      <path d="M28.849 21.809l-4.529-0.517c-1.083-0.123-2.142 0.246-2.905 1.009l-3.298 3.274c-5.022-2.56-9.157-6.671-11.717-11.717l3.274-3.298c0.788-0.763 1.157-1.846 1.034-2.929l-0.517-4.48c-0.222-1.822-1.723-3.151-3.545-3.151h-3.077c-2.018 0-3.692 1.674-3.569 3.668 0.935 15.212 13.095 27.372 28.308 28.308 1.994 0.123 3.668-1.551 3.668-3.545v-3.102c0.025-1.797-1.329-3.298-3.126-3.52z"></path>
    </symbol>
    <symbol id="user" viewBox="0 0 32 32">
      <path fill="#4d5ae5" d="M16 16c4.4 0 8-3.6 8-8 0-4.427-3.6-8-8-8-4.427 0-8 3.573-8 8 0 4.4 3.573 8 8 8zM16 20c-5.36 0-16 2.667-16 8v2c0 1.093 0.88 2 2 2h28c1.093 0 2-0.907 2-2v-2c0-5.333-10.667-8-16-8z"></path>
    </symbol>

    <symbol id="check" viewBox="0 0 40 32">
      <path d="M33.76 1c0.68-0.68 1.6-1.040 2.56-1 0.96 0 1.88 0.36 2.56 1.040s1.080 1.6 1.080 2.56c0.040 0.96-0.32 1.88-0.96 2.6l-19.56 24.6c-0.36 0.36-0.76 0.64-1.2 0.84-0.44 0.24-0.92 0.32-1.44 0.32-0.48 0.040-1-0.080-1.44-0.24-0.44-0.2-0.88-0.48-1.24-0.84l-12.96-13.040c-0.36-0.32-0.68-0.76-0.88-1.2s-0.28-0.96-0.28-1.44c-0.040-0.48 0.080-1 0.24-1.44 0.2-0.48 0.48-0.88 0.8-1.24 0.36-0.36 0.8-0.64 1.24-0.8 0.48-0.2 0.96-0.28 1.44-0.28s1 0.12 1.44 0.32c0.44 0.2 0.84 0.48 1.2 0.84l10.28 10.32 17.040-21.8c0-0.040 0.040-0.080 0.080-0.12v0z"></path>
    </symbol>





</defs>
</svg>

  </defs>
</svg>